<?xml version="1.0" encoding="utf-8"?>
<!-- Generator: Adobe Illustrator 16.0.0, SVG Export Plug-In . SVG Version: 6.00 Build 0)  -->
<!DOCTYPE svg PUBLIC "-//W3C//DTD SVG 1.1//EN" "http://www.w3.org/Graphics/SVG/1.1/DTD/svg11.dtd">
<svg version="1.1" xmlns="http://www.w3.org/2000/svg" xmlns:xlink="http://www.w3.org/1999/xlink" x="0px" y="0px" width="1500px"
	 height="600px" viewBox="0 0 1500 600" enable-background="new 0 0 1500 600" xml:space="preserve">
<g id="RISCON">
</g>
<g id="Layer_4">
	<g>
		<g>
			<path id="R" fill="#FFFFFF" stroke="#000000" stroke-width="10" stroke-miterlimit="10" d="M370,295.512v37.975
				c0,1.618-1.159,3.514-2.816,3.514h-34.623c-1.657,0-2.562-1.896-2.562-3.514V228.958c0-1.618,0.905-1.958,2.562-1.958h129.533
				C478.524,227,492,239.83,492,256.259v9.505c0,16.429-13.397,29.748-29.827,29.748c0,0-14.539-0.05-14.237,0.021
				c-0.25,0.545,111.844,83.504,111.844,83.504c1.924,1.441,1.313,1.963-0.772,1.963h-52.234c-5.166,0-121.37-85.29-121.37-85.29
				L370,295.512z M450,256c0-1.657-1.343-3-3-3h-73c-1.657,0-3,1.343-3,3v10c0,1.657,1.343,3,3,3h73c1.657,0,3-1.343,3-3V256z"/>
			<path id="S" fill="#FFFFFF" stroke="#000000" stroke-width="10" stroke-miterlimit="10" d="M678.601,339
				c-1.657,0-2.601-1.832-2.601-3.488v-20c0-1.656,0.944-2.512,2.601-3.512h112c1.656,0,3.399-1.567,3.399-3.155v-12.458
				c0-1.588-1.743-2.387-3.399-2.387h-86.082C688.548,294,676,280.48,676,264.405v-7.762C676,240.568,688.548,228,704.519,228
				h131.082c1.657,1,3.399,1.855,3.399,3.512v20c0,1.657-1.742,3.488-3.399,3.488h-113c-1.656,0-2.601,0.453-2.601,1.883v11.226
				c0,1.431,0.944,2.891,2.601,2.891h87C826.169,271,840,283.943,840,300.512v8C840,325.08,826.169,339,809.601,339H678.601z"/>
			<path id="C" fill="#FFFFFF" stroke="#000000" stroke-width="10" stroke-miterlimit="10" d="M980,295.451
				c0-1.623,0.728-2.451,2.408-2.451h37.414c1.681,0,3.178,0.828,3.178,2.451v10.441c0,18.016-15.239,33.108-33.255,33.108h-100.76
				C870.97,339,857,323.907,857,305.892v-46.76C857,241.116,870.97,227,888.985,227h100.76c18.016,0,33.255,14.116,33.255,32.132
				v8.441c0,1.623-1.817,3.427-3.485,3.427h-37.13c-1.667,0-2.385-1.804-2.385-3.427v-9.061c0-1.657-1.978-2.512-3.635-2.512h-73
				c-1.657,0-2.365,0.855-2.365,2.512v48c0,1.657,0.708,3.488,2.365,3.488h73c1.657,0,3.635-1.831,3.635-3.488V295.451z"/>
			<path id="O" fill="#FFFFFF" stroke="#000000" stroke-width="10" stroke-miterlimit="10" d="M1205,306.38
				c0,18.016-14.604,32.62-32.62,32.62h-100.76c-18.016,0-32.62-14.604-32.62-32.62v-46.76c0-18.016,14.604-32.62,32.62-32.62
				h100.76c18.016,0,32.62,14.604,32.62,32.62V306.38z M1162,259c0-1.657-1.343-3-3-3h-73c-1.657,0-3,1.343-3,3v48
				c0,1.657,1.343,3,3,3h73c1.657,0,3-1.343,3-3V259z"/>
			<path id="N" fill="#FFFFFF" stroke="#000000" stroke-width="10" stroke-miterlimit="10" d="M1270.843,335.265
				c0,1.608-1.343,3.735-3,3.735h-37c-1.657,0-3-2.127-3-3.735V231.416c0-1.608,1.343-2.416,3-2.416l24.948-0.086l75.877,55.364
				c4.335,3.362,3.706,2.827,3.706-6.109l-0.006-46.848c0-1.608,1.343-2.416,3-2.416h37c1.657,0,3,0.808,3,2.416v103.848
				c0,1.609-1.343,3.736-3,3.736l-33.277-0.072l-68.157-50.142c-3.203-2.694-3.108-2.646-3.108,5.478L1270.843,335.265z"/>
			<polygon id="polygon82" fill="#FFFFFF" stroke="#000000" stroke-width="10" stroke-linejoin="round" points="605.154,295.884 
				664.341,229.043 618.25,229.043 584.148,264.419 554.726,229.043 502.341,229.043 563.06,295.714 563.06,339 605.154,339 			"/>
		</g>
		<g>
			<path fill="#FEF200" stroke="#000000" stroke-width="10" stroke-miterlimit="10" d="M154.598,203.778
				c1.172,1.172,3.071,1.172,4.243,0l42.396-42.376c2.881-2.88,6.083-4.354,7.149-3.288l68.864,68.866
				c1.066,1.066-0.405,4.267-3.287,7.148l-64.36,64.36c-2.882,2.88-6.083,4.355-7.149,3.289l-79.986-80.057
				c-1.172-1.172-1.101-3.142,0.157-4.4l20.505-20.505c1.258-1.259,3.228-1.329,4.4-0.157L154.598,203.778z"/>
			<path fill="#BAD520" stroke="#000000" stroke-width="10" stroke-miterlimit="10" d="M154.598,277.344
				c1.172,1.172,3.071,1.172,4.243,0l42.396-42.376c2.881-2.88,6.083-4.354,7.149-3.288l68.864,68.866
				c1.066,1.066-0.405,4.267-3.287,7.148l-64.36,64.36c-2.882,2.881-6.083,4.355-7.149,3.288l-79.986-80.057
				c-1.172-1.172-1.101-3.142,0.157-4.4l20.505-20.505c1.258-1.259,3.228-1.329,4.4-0.157L154.598,277.344z"/>
			<path fill="#009DDE" stroke="#000000" stroke-width="10" stroke-miterlimit="10" d="M154.597,350.91
				c1.172,1.172,3.071,1.172,4.243,0l42.397-42.376c2.881-2.88,6.083-4.354,7.149-3.288l68.865,68.866
				c1.066,1.066-0.406,4.267-3.288,7.148l-64.36,64.36c-2.881,2.881-6.083,4.355-7.149,3.288l-79.987-80.057
				c-1.172-1.172-1.101-3.142,0.157-4.4l20.505-20.505c1.258-1.259,3.228-1.329,4.4-0.157L154.597,350.91z"/>
		</g>
	</g>
	<g>
	</g>
	<g>
	</g>
	<g>
	</g>
	<g>
	</g>
	<g>
	</g>
	<g>
	</g>
	<g>
	</g>
	<g>
	</g>
	<g>
	</g>
	<g>
	</g>
	<g>
	</g>
	<g>
	</g>
	<g>
	</g>
	<g>
	</g>
	<g>
	</g>
</g>
</svg>
