<?xml version="1.0" encoding="utf-8"?>
<!-- Generator: Adobe Illustrator 16.0.0, SVG Export Plug-In . SVG Version: 6.00 Build 0)  -->
<!DOCTYPE svg PUBLIC "-//W3C//DTD SVG 1.1//EN" "http://www.w3.org/Graphics/SVG/1.1/DTD/svg11.dtd">
<svg version="1.1" id="Layer_1" xmlns="http://www.w3.org/2000/svg" xmlns:xlink="http://www.w3.org/1999/xlink" x="0px" y="0px"
	 width="1325px" height="316px" viewBox="0 0 1325 316" enable-background="new 0 0 1325 316" xml:space="preserve">
<g>
	<g>
		<path id="R" fill="#FFFFFF" stroke="#000000" stroke-width="10" stroke-miterlimit="10" d="M282,149.512v37.975
			c0,1.618-1.159,3.514-2.816,3.514h-34.623c-1.657,0-2.562-1.896-2.562-3.514V82.958c0-1.618,0.905-1.958,2.562-1.958h129.533
			C390.524,81,404,93.83,404,110.259v9.505c0,16.429-13.397,29.748-29.827,29.748c0,0-14.539-0.05-14.237,0.021
			c-0.25,0.545,111.844,83.504,111.844,83.504c1.924,1.441,1.313,1.963-0.772,1.963h-52.234c-5.166,0-121.37-85.29-121.37-85.29
			L282,149.512z M362,110c0-1.657-1.343-3-3-3h-73c-1.657,0-3,1.343-3,3v10c0,1.657,1.343,3,3,3h73c1.657,0,3-1.343,3-3V110z"/>
		<path id="S" fill="#FFFFFF" stroke="#000000" stroke-width="10" stroke-miterlimit="10" d="M590.601,193
			c-1.657,0-2.601-1.832-2.601-3.488v-20c0-1.656,0.944-2.512,2.601-3.512h112c1.656,0,3.399-1.567,3.399-3.155v-12.458
			c0-1.588-1.743-2.387-3.399-2.387h-86.082C600.548,148,588,134.48,588,118.405v-7.762C588,94.568,600.548,82,616.519,82h131.082
			c1.657,1,3.399,1.855,3.399,3.512v20c0,1.657-1.742,3.488-3.399,3.488h-113c-1.656,0-2.601,0.453-2.601,1.883v11.226
			c0,1.431,0.944,2.891,2.601,2.891h87C738.169,125,752,137.943,752,154.512v8C752,179.08,738.169,193,721.601,193H590.601z"/>
		<path id="C" fill="#FFFFFF" stroke="#000000" stroke-width="10" stroke-miterlimit="10" d="M892,149.451
			c0-1.623,0.728-2.451,2.408-2.451h37.414c1.681,0,3.178,0.828,3.178,2.451v10.441C935,177.907,919.761,193,901.745,193h-100.76
			C782.97,193,769,177.907,769,159.892v-46.76C769,95.116,782.97,81,800.985,81h100.76C919.761,81,935,95.116,935,113.132v8.441
			c0,1.623-1.817,3.427-3.485,3.427h-37.13c-1.667,0-2.385-1.804-2.385-3.427v-9.061c0-1.657-1.978-2.512-3.635-2.512h-73
			c-1.657,0-2.365,0.855-2.365,2.512v48c0,1.657,0.708,3.488,2.365,3.488h73c1.657,0,3.635-1.831,3.635-3.488V149.451z"/>
		<path id="O" fill="#FFFFFF" stroke="#000000" stroke-width="10" stroke-miterlimit="10" d="M1117,160.38
			c0,18.016-14.604,32.62-32.62,32.62H983.62c-18.016,0-32.62-14.604-32.62-32.62v-46.76C951,95.604,965.604,81,983.62,81h100.76
			c18.016,0,32.62,14.604,32.62,32.62V160.38z M1074,113c0-1.657-1.343-3-3-3h-73c-1.657,0-3,1.343-3,3v48c0,1.657,1.343,3,3,3h73
			c1.657,0,3-1.343,3-3V113z"/>
		<path id="N" fill="#FFFFFF" stroke="#000000" stroke-width="10" stroke-miterlimit="10" d="M1183.343,189.753
			c0,1.608-1.343,3.735-3,3.735h-37c-1.657,0-3-2.127-3-3.735V85.904c0-1.608,1.343-2.416,3-2.416l24.948-0.086l75.877,55.364
			c4.335,3.362,3.706,2.827,3.706-6.109l-0.006-46.848c0-1.608,1.343-2.416,3-2.416h37c1.657,0,3,0.808,3,2.416v103.848
			c0,1.609-1.343,3.736-3,3.736l-33.277-0.072l-68.157-50.142c-3.203-2.694-3.108-2.646-3.108,5.478L1183.343,189.753z"/>
		<polygon id="polygon82" fill="#FFFFFF" stroke="#000000" stroke-width="10" stroke-linejoin="round" points="517.654,150.372 
			576.841,83.531 530.75,83.531 496.648,118.907 467.226,83.531 414.841,83.531 475.56,150.202 475.56,193.488 517.654,193.488 		
			"/>
	</g>
	<g>
		<path fill="#FEF200" stroke="#000000" stroke-width="10" stroke-miterlimit="10" d="M67.098,58.266
			c1.172,1.172,3.071,1.172,4.243,0l42.396-42.376c2.881-2.88,6.083-4.354,7.149-3.288l68.864,68.866
			c1.066,1.066-0.405,4.267-3.287,7.148l-64.36,64.36c-2.882,2.88-6.083,4.355-7.149,3.289L34.967,76.208
			c-1.172-1.172-1.101-3.142,0.157-4.4l20.505-20.505c1.258-1.259,3.228-1.329,4.4-0.157L67.098,58.266z"/>
		<path fill="#BAD520" stroke="#000000" stroke-width="10" stroke-miterlimit="10" d="M67.098,131.832
			c1.172,1.172,3.071,1.172,4.243,0l42.396-42.376c2.881-2.88,6.083-4.354,7.149-3.288l68.864,68.866
			c1.066,1.066-0.405,4.267-3.287,7.149l-64.36,64.36c-2.882,2.881-6.083,4.355-7.149,3.288l-79.986-80.057
			c-1.172-1.172-1.101-3.142,0.157-4.4l20.505-20.505c1.258-1.259,3.228-1.329,4.4-0.157L67.098,131.832z"/>
		<path fill="#009DDE" stroke="#000000" stroke-width="10" stroke-miterlimit="10" d="M67.097,205.398
			c1.172,1.172,3.071,1.172,4.243,0l42.397-42.376c2.881-2.88,6.083-4.355,7.149-3.288l68.865,68.866
			c1.066,1.066-0.406,4.267-3.288,7.148l-64.36,64.36c-2.881,2.881-6.083,4.355-7.149,3.288l-79.987-80.057
			c-1.172-1.172-1.101-3.142,0.157-4.4l20.505-20.505c1.258-1.259,3.228-1.329,4.4-0.157L67.097,205.398z"/>
	</g>
</g>
<g>
</g>
<g>
</g>
<g>
</g>
<g>
</g>
<g>
</g>
<g>
</g>
<g>
</g>
<g>
</g>
<g>
</g>
<g>
</g>
<g>
</g>
<g>
</g>
<g>
</g>
<g>
</g>
<g>
</g>
</svg>
