<svg xmlns:dc="http://purl.org/dc/elements/1.1/" xmlns:cc="http://creativecommons.org/ns#" xmlns:rdf="http://www.w3.org/1999/02/22-rdf-syntax-ns#" xmlns:svg="http://www.w3.org/2000/svg" xmlns="http://www.w3.org/2000/svg" xmlns:sodipodi="http://sodipodi.sourceforge.net/DTD/sodipodi-0.dtd" xmlns:inkscape="http://www.inkscape.org/namespaces/inkscape" width="567.3" height="146.82" id="svg3079" version="1.1" inkscape:version="0.48" sodipodi:docname="Ryscon-One-Line.svg"><defs id="defs3081"><filter color-interpolation-filters="sRGB" id="filter3908" inkscape:label="Drop Shadow"><feFlood id="feFlood3910" flood-opacity="0.5" flood-color="rgb(0,0,0)" result="flood"/><feComposite id="feComposite3912" in2="SourceGraphic" in="flood" operator="in" result="composite1"/><feGaussianBlur id="feGaussianBlur3914" stdDeviation="2" result="blur"/><feOffset id="feOffset3916" dx="-5" dy="5" result="offset"/><feComposite id="feComposite3918" in2="offset" in="SourceGraphic" operator="over" result="composite2"/></filter><filter color-interpolation-filters="sRGB" id="filter3928" inkscape:label="Drop Shadow"><feFlood id="feFlood3930" flood-opacity="0.5" flood-color="rgb(0,0,0)" result="flood"/><feComposite id="feComposite3932" in2="SourceGraphic" in="flood" operator="in" result="composite1"/><feGaussianBlur id="feGaussianBlur3934" stdDeviation="2" result="blur"/><feOffset id="feOffset3936" dx="-5" dy="5" result="offset"/><feComposite id="feComposite3938" in2="offset" in="SourceGraphic" operator="over" result="composite2"/></filter></defs><sodipodi:namedview id="base" pagecolor="#ffffff" bordercolor="#666666" borderopacity="1" inkscape:pageopacity="0" inkscape:pageshadow="2" inkscape:zoom="1.76" inkscape:cx="301.33" inkscape:cy="55.71" inkscape:document-units="px" inkscape:current-layer="layer1" showgrid="false" inkscape:window-width="1309" inkscape:window-height="744" inkscape:window-x="57" inkscape:window-y="24" inkscape:window-maximized="1" fit-margin-top="0.1" fit-margin-left="0" fit-margin-bottom="0.1" fit-margin-right="0"/><metadata id="metadata3084"><rdf:RDF><cc:Work rdf:about=""><dc:format>image/svg+xml</dc:format><dc:type rdf:resource="http://purl.org/dc/dcmitype/StillImage"/></cc:Work></rdf:RDF></metadata><g inkscape:label="Layer 1" inkscape:groupmode="layer" id="layer1" transform="translate(0.44345602,2.6150685)"><g transform="translate(-53.436592,-276.80157)" id="g3923" filter="url(#filter3928)"><path sodipodi:nodetypes="ccccscscsscc" id="path18" d="m132.51 317.2-30.97 30.97-8.08-8.08-19.38-19.38-4.43-4.43c-1.45-1.45-1.52-3.72-0.18-5.1l5.35-5.35c1.35-1.35 3.58-1.24 5.1 0.18 1.74 1.59 2.73 0.89 3.9-0.28l16.16-16.16c1.35-1.35 3.65-1.28 5.1 0.18z" inkscape:connector-curvature="0" style="fill-rule:evenodd;fill:#ffff28;stroke-miterlimit:4;stroke-width:4.19;stroke:#000"/><path sodipodi:nodetypes="ccccscscsscc" id="path20" d="m159.97 344.66-30.97 30.97-8.08-8.08-19.38-19.38-4.43-4.43c-1.45-1.45-1.52-3.72-0.18-5.1l5.35-5.35c1.35-1.35 3.58-1.24 5.1 0.18 1.74 1.59 2.73 0.89 3.9-0.28l16.16-16.16c1.35-1.35 3.65-1.28 5.1 0.18z" inkscape:connector-curvature="0" style="fill-rule:evenodd;fill:#7fff00;stroke-miterlimit:4;stroke-width:4.19;stroke:#000"/><path sodipodi:nodetypes="ccccscscsscc" id="path22" d="m129 375.63-30.97 30.97-8.08-8.08-19.38-19.38-4.43-4.43c-1.45-1.45-1.52-3.72-0.18-5.1l5.35-5.35c1.35-1.35 3.58-1.24 5.1 0.18 1.74 1.59 2.73 0.89 3.9-0.28l16.16-16.16c1.35-1.35 3.65-1.28 5.1 0.18z" inkscape:connector-curvature="0" style="fill-rule:evenodd;fill:#007bff;stroke-miterlimit:4;stroke-width:4.19;stroke:#000"/></g><g transform="translate(-53.436592,-276.80157)" id="g3900" filter="url(#filter3908)"><path sodipodi:nodetypes="ccccccccccsccccscccc" id="path48" d="m212.2 330.66-27.53 0 0 6.59 27.53 0zm-20.62 18-6.91 0 0 17.01-17.29 0 0-45.85 50.07 0c3.3 0 6.13 1.45 8.47 3.51 1.84 1.63 3.51 3.79 3.54 7.3l0.07 5.95c0 3.3-1.2 6.13-3.58 8.54-2.34 2.34-5.17 3.51-8.47 3.51l-5.24 0 31.29 35.5-21.12 0zM353.15 347.28l-35.86 0" inkscape:connector-curvature="0" style="fill-rule:evenodd;fill:#fff;stroke-miterlimit:4;stroke-width:4.12;stroke:#000"/><path sodipodi:nodetypes="cccssssssccccccsssscscccc" id="path50" d="m353.15 347.28-35.86 0c-1.95-0.28-3.76-0.78-5.35-1.52-1.59-0.71-2.98-1.59-4.11-2.66-1.13-1.06-2.06-2.27-2.69-3.65-0.64-1.38-0.96-2.91-0.96-4.61l0-3.08c0-3.3 1.24-6.13 3.72-8.47 2.48-2.34 5.56-3.51 9.18-3.51l55.03 0 0 10.84-49.22 0 0 6.59 35.79 0c1.95 0.18 3.76 0.57 5.42 1.1 1.67 0.57 3.05 1.28 4.22 2.2 1.17 0.92 2.09 2.02 2.76 3.3 0.67 1.28 0.99 2.76 0.99 4.36l0 5.39c0 3.33-1.28 6.2-3.86 8.54-2.48 2.34-5.56 3.51-9.25 3.51l-54.89 0 0-10.91 49.07 0z" inkscape:connector-curvature="0" style="fill-rule:evenodd;fill:#fff;stroke-miterlimit:4;stroke-width:4.12;stroke:#000"/><path sodipodi:nodetypes="cssssssccsssccccccccssc" id="path52" d="m436.28 319.82-43.12 0c-3.4 0-6.27 1.17-8.61 3.51-2.34 2.34-3.51 5.17-3.51 8.54l0 21.72c0 3.33 1.17 6.2 3.51 8.54 2.34 2.34 5.21 3.51 8.61 3.51l14.92 0 14.07 0 14.14 0c3.44 0 6.34-1.17 8.68-3.51 2.37-2.37 3.58-5.24 3.58-8.54l0-6.31-17.43 0 0 6.87-32.7 0 0-22.96 32.7 0 0 6.94 17.43 0 0-6.31c0-3.3-1.22-6.11-3.58-8.54-1.77-1.82-4.4-3.51-8.68-3.47z" inkscape:connector-curvature="0" style="fill-rule:evenodd;fill:#fff;stroke-miterlimit:4;stroke-width:4.12;stroke:#000"/><polygon id="polygon54" points="15991 18862 16305 18863 17245 19548 17245 18862 17733 18862 17733 19948 17733 20155 17332 20155 17167 20035 16856 19809 16674 19676 16479 19534 16479 20155 15991 20155 " transform="matrix(0.03543307,0,0,0.03543307,-30.553735,-348.51626)" style="fill-rule:evenodd;fill:#fff;stroke-miterlimit:4;stroke-width:116.4;stroke:#000"/><path id="path56" d="m513.88 319.82-43.12 0c-3.4 0-6.27 1.17-8.61 3.51-2.34 2.34-3.51 5.17-3.51 8.54l0 21.72c0 3.33 1.17 6.2 3.51 8.54 2.34 2.34 5.21 3.51 8.61 3.51l14.92 0 14.07 0 14.14 0c3.44 0 6.34-1.17 8.68-3.51 2.37-2.37 3.58-5.24 3.58-8.54l0-21.72c0-3.3-1.2-6.13-3.58-8.54-2.34-2.34-5.24-3.51-8.68-3.51zm-5.17 34.37-32.7 0 0-22.96 32.7 0 0 22.96z" inkscape:connector-curvature="0" style="fill-rule:evenodd;fill:#fff;stroke-miterlimit:4;stroke-width:4.12;stroke:#000"/><polygon id="polygon58" points="8393 19278 8047 18862 7431 18862 8145 19646 8145 20155 8640 20155 8640 19648 9336 18862 8794 18862 " transform="matrix(0.03543307,0,0,0.03543307,-30.553735,-348.51626)" style="fill-rule:evenodd;fill:#fff;stroke-miterlimit:4;stroke-width:116.4;stroke:#000"/></g></g></svg>