<svg xmlns:dc="http://purl.org/dc/elements/1.1/" xmlns:cc="http://creativecommons.org/ns#" xmlns:rdf="http://www.w3.org/1999/02/22-rdf-syntax-ns#" xmlns:svg="http://www.w3.org/2000/svg" xmlns="http://www.w3.org/2000/svg" xmlns:inkscape="http://www.inkscape.org/namespaces/inkscape" viewBox="0 0 579 149" version="1.1"><defs><filter id="filter6935" inkscape:label="Drop Shadow" color-interpolation-filters="sRGB"><feFlood id="feFlood6937" flood-opacity="0.4" flood-color="rgb(0,0,0)" result="flood"/><feComposite id="feComposite6939" in2="SourceGraphic" in="flood" operator="in" result="composite1"/><feGaussianBlur id="feGaussianBlur6941" stdDeviation="5" result="blur"/><feOffset id="feOffset6943" dx="-8" dy="8" result="offset"/><feComposite id="feComposite6945" in2="offset" in="SourceGraphic" operator="over" result="composite2"/></filter></defs><g transform="translate(0,-903.36218)"><g transform="translate(-125.0939,502.64286)" filter="url(#filter6935)"><g transform="translate(41.193367,270.08398)"><path d="m141.29 146.16c-0.93-0.03-1.83 0.3-2.5 0.97l-16.16 16.16c-1.17 1.17-2.17 1.88-3.91 0.28-1.52-1.42-3.75-1.53-5.09-0.19l-5.37 5.38c-1.35 1.38-1.27 3.64 0.19 5.09l4.44 4.44 19.38 19.38 3.59 3.59c-1.39-1.45-1.45-3.7-0.12-5.06l5.34-5.34c1.35-1.35 3.6-1.23 5.13 0.19 1.74 1.59 2.71 0.89 3.88-0.28l16.16-16.16c1.3-1.3 3.51-1.29 4.97 0.03l-27.31-27.31c-0.73-0.73-1.67-1.13-2.59-1.16z" style="fill:#ffff28;stroke-miterlimit:4;stroke-width:4.19;stroke:#000"/><path d="m198.71 202.18-30.97 30.97-8.08-8.08-19.38-19.38-4.43-4.43c-1.45-1.45-1.52-3.72-0.18-5.1l5.35-5.35c1.35-1.35 3.58-1.24 5.1 0.18 1.74 1.59 2.73 0.89 3.9-0.28l16.16-16.16c1.35-1.35 3.65-1.28 5.1 0.18z" style="fill:#7fff00;stroke-miterlimit:4;stroke-width:4.19;stroke:#000"/><path d="m167.74 233.14-30.97 30.97-8.08-8.08-19.38-19.38-4.43-4.43c-1.45-1.45-1.52-3.72-0.18-5.1l5.35-5.35c1.35-1.35 3.58-1.24 5.1 0.18 1.74 1.59 2.73 0.89 3.9-0.28l16.16-16.16c1.35-1.35 3.65-1.28 5.1 0.18z" style="fill:#007bff;stroke-miterlimit:4;stroke-width:4.19;stroke:#000"/></g><path d="m436.65 480.77-35.86 0c-7.47-0.63-12.94-5.26-13.11-12.44l0-3.08c0.4-7.28 5.98-12.02 12.9-11.98l55.03 0 0 10.84-49.22 0 0 6.59 35.79 0c8.92-0.22 13.34 3.34 13.39 10.95l0 5.39c-0.44 7.36-5.04 11.85-13.11 12.05l-54.89 0 0-10.91 49.07 0z" style="fill:#fff;stroke-miterlimit:4;stroke-width:4.12;stroke:#000"/><path d="m295.7 464.15-27.53 0 0 6.59 27.53 0zm-24.56 18-2.97 0 0 17.01-17.29 0 0-45.85 50.07 0c6.29 0.4 11.86 5.49 12.01 10.81l0.07 5.95c-0.37 6.88-4.64 12.09-12.05 12.05l-9.18 0 35.22 35.5-21.12 0z" style="fill:#fff;stroke-miterlimit:4;stroke-width:4.12;stroke:#000"/><path d="m519.78 453.31-43.12 0c-7.74-0.45-12.29 5.59-12.12 12.05l0 21.72c0.32 7 5.93 11.97 12.12 12.05l43.12 0c6.97-0.3 12.17-5.78 12.26-12.05l0-6.31-17.43 0 0 6.87-32.7 0 0-22.96 32.7 0 0 6.94 17.43 0 0-6.31c-0.36-7.24-6.46-11.98-12.26-12.01z" style="fill:#fff;stroke-miterlimit:4;stroke-width:4.12;stroke:#000"/><path d="m636.85 477.12 0 22-17.29 0 0-45.81 11.13 0.04 33.31 24.27 0-24.31 17.29 0 0 45.81-14.21 0z" style="fill:#fff;stroke-miterlimit:4;stroke-width:4.12;stroke:#000"/><path d="m597.38 453.31-43.12 0c-6.99 0.3-12.04 5.84-12.12 12.05l0 21.72c0.32 7 5.93 11.97 12.12 12.05l43.12 0c3.44 0 6.34-1.17 8.68-3.51 2.37-2.37 3.58-5.24 3.58-8.54l0-21.72c-0.36-7.03-6.06-11.97-12.26-12.05zm-5.17 34.37-32.7 0 0-22.96 32.7 0z" style="fill:#fff;stroke-miterlimit:4;stroke-width:4.12;stroke:#000"/><path d="m359.09 499.12 0-17.96 26.66-27.85-19.2 0-16.21 14.74-14.26-14.74-21.83 0 27.3 27.78 0 18.04z" style="fill:#fff;stroke-miterlimit:4;stroke-width:4.12;stroke:#000"/></g></g></svg>