<?xml version="1.0" encoding="utf-8"?>
<!-- Generator: Adobe Illustrator 16.0.0, SVG Export Plug-In . SVG Version: 6.00 Build 0)  -->
<!DOCTYPE svg PUBLIC "-//W3C//DTD SVG 1.1//EN" "http://www.w3.org/Graphics/SVG/1.1/DTD/svg11.dtd">
<svg version="1.1" id="Layer_1" xmlns="http://www.w3.org/2000/svg" xmlns:xlink="http://www.w3.org/1999/xlink" x="0px" y="0px"
	 width="185.723px" height="316px" viewBox="0 0 185.723 316" enable-background="new 0 0 185.723 316" xml:space="preserve">
<g>
	<path fill="#FFFFFF" stroke="#000000" stroke-width="10" stroke-miterlimit="10" d="M47.844,58.266
		c1.172,1.172,3.071,1.172,4.243,0L94.482,15.89c2.881-2.88,6.084-4.354,7.15-3.288l68.863,68.866
		c1.066,1.066-0.404,4.267-3.287,7.148l-64.359,64.36c-2.883,2.88-6.084,4.355-7.15,3.289L15.713,76.208
		c-1.172-1.172-1.101-3.142,0.157-4.4l20.505-20.505c1.258-1.259,3.228-1.329,4.4-0.157L47.844,58.266z"/>
	<path fill="#FFFFFF" stroke="#000000" stroke-width="10" stroke-miterlimit="10" d="M47.844,131.832
		c1.172,1.172,3.071,1.172,4.243,0l42.396-42.376c2.881-2.88,6.084-4.354,7.15-3.288l68.863,68.866
		c1.066,1.066-0.404,4.268-3.287,7.149l-64.359,64.361c-2.883,2.881-6.084,4.355-7.15,3.287l-79.986-80.057
		c-1.172-1.172-1.101-3.142,0.157-4.4l20.505-20.505c1.258-1.259,3.228-1.329,4.4-0.157L47.844,131.832z"/>
	<path fill="#FFFFFF" stroke="#000000" stroke-width="10" stroke-miterlimit="10" d="M47.843,205.399
		c1.172,1.172,3.071,1.172,4.243,0l42.396-42.377c2.881-2.879,6.083-4.355,7.149-3.287l68.864,68.865
		c1.066,1.066-0.405,4.268-3.287,7.148l-64.36,64.36c-2.882,2.881-6.083,4.355-7.149,3.287l-79.986-80.056
		c-1.172-1.172-1.101-3.141,0.157-4.4l20.505-20.504c1.258-1.26,3.228-1.33,4.4-0.158L47.843,205.399z"/>
</g>
<g>
</g>
<g>
</g>
<g>
</g>
<g>
</g>
<g>
</g>
<g>
</g>
<g>
</g>
<g>
</g>
<g>
</g>
<g>
</g>
<g>
</g>
<g>
</g>
<g>
</g>
<g>
</g>
<g>
</g>
</svg>
